<svg width="24" height="24" viewBox="0 0 24 24" fill="currentColor" xmlns="http://www.w3.org/2000/svg">
    <path fill-rule="evenodd" clip-rule="evenodd" d="M17.1855 10C17.4189 10 17.6238 10.0746 17.7988 10.2246C17.9738 10.3746 18.0857 10.5666 18.1357 10.7998L18.2861 11.5C18.4861 11.5833 18.6737 11.6754 18.8486 11.7754C19.0236 11.8754 19.2025 12.0005 19.3857 12.1504L20.0605 11.9248C20.2939 11.8415 20.5197 11.8415 20.7363 11.9248C20.9528 12.0081 21.1197 12.1498 21.2363 12.3496L21.4355 12.7002C21.5522 12.9001 21.5938 13.1164 21.5605 13.3496C21.5272 13.5828 21.4195 13.7748 21.2363 13.9248L20.6855 14.4004C20.7188 14.6003 20.7363 14.8088 20.7363 15.0254C20.7363 15.2419 20.7189 15.4505 20.6855 15.6504L21.2363 16.125C21.4195 16.275 21.5272 16.4626 21.5605 16.6875C21.5939 16.9125 21.5522 17.1252 21.4355 17.3252L21.2109 17.7002C21.0944 17.8833 20.9361 18.0163 20.7363 18.0996C20.5364 18.1829 20.3279 18.1916 20.1113 18.125L19.3857 17.9004C19.2026 18.0336 19.0235 18.1457 18.8486 18.2373C18.6737 18.329 18.4861 18.4167 18.2861 18.5L18.1357 19.2246C18.0858 19.4578 17.9736 19.6455 17.7988 19.7871C17.6238 19.9288 17.4189 20 17.1855 20H16.7861C16.553 20 16.3487 19.9252 16.1738 19.7754C15.9989 19.6254 15.886 19.4335 15.8359 19.2002L15.6855 18.5C15.4857 18.4167 15.2979 18.3289 15.123 18.2373C14.9482 18.1457 14.7691 18.0336 14.5859 17.9004L13.8613 18.125C13.6447 18.1917 13.432 18.1829 13.2236 18.0996C13.0154 18.0163 12.853 17.8834 12.7363 17.7002L12.5361 17.3496C12.4196 17.1497 12.3779 16.9334 12.4111 16.7002C12.4445 16.4669 12.553 16.275 12.7363 16.125L13.2861 15.6504C13.2528 15.4171 13.2363 15.2 13.2363 15C13.2363 14.8 13.2528 14.5829 13.2861 14.3496L12.7363 13.875C12.553 13.725 12.4445 13.5375 12.4111 13.3125C12.3778 13.0875 12.4195 12.8748 12.5361 12.6748L12.7607 12.2998C12.8774 12.1165 13.0363 11.9837 13.2363 11.9004C13.4363 11.8171 13.6447 11.8083 13.8613 11.875L14.5859 12.0996C14.7691 11.9664 14.9482 11.8543 15.123 11.7627C15.2979 11.6711 15.4857 11.5833 15.6855 11.5L15.8359 10.7754C15.8859 10.5421 15.9988 10.3546 16.1738 10.2129C16.3488 10.0712 16.5528 10 16.7861 10H17.1855ZM16.9863 13C16.4363 13 15.9649 13.1962 15.5732 13.5879C15.1818 13.9795 14.9863 14.4502 14.9863 15C14.9863 15.5498 15.1818 16.0205 15.5732 16.4121C15.9649 16.8038 16.4363 17 16.9863 17C17.5362 16.9999 18.0068 16.8037 18.3984 16.4121C18.79 16.0205 18.9863 15.5499 18.9863 15C18.9863 14.4501 18.79 13.9795 18.3984 13.5879C18.0068 13.1963 17.5362 13.0001 16.9863 13Z" fill="black"/>
    <path d="M10.5732 12.0127C10.4232 12.2623 10.3706 12.5264 10.416 12.8057C10.4637 13.0982 10.6178 13.3431 10.8799 13.5381L11.666 14.1543C11.6184 14.4576 11.5957 14.74 11.5957 15C11.5957 15.26 11.6184 15.5424 11.666 15.8457L10.8799 16.4619C10.6179 16.6569 10.4637 16.9067 10.416 17.21C10.3684 17.5133 10.428 17.7957 10.5947 18.0557L10.8799 18.5107C11.0325 18.7286 11.2407 18.8909 11.5029 19H4C3.45 19 2.97956 18.8038 2.58789 18.4121C2.19622 18.0204 2 17.55 2 17V16.2002C2 15.6336 2.14589 15.1127 2.4375 14.6377C2.72912 14.1628 3.11638 13.7998 3.59961 13.5498C4.63293 13.0331 5.68335 12.646 6.75 12.3877C7.81667 12.1294 8.9 12 10 12C10.1916 12 10.3827 12.0048 10.5732 12.0127Z" fill="black"/>
    <path d="M10 3C11.1 3 12.0419 3.39147 12.8252 4.1748C13.6085 4.95814 14 5.9 14 7C14 8.1 13.6085 9.04186 12.8252 9.8252C12.0419 10.6085 11.1 11 10 11C8.9 11 7.95814 10.6085 7.1748 9.8252C6.39147 9.04186 6 8.1 6 7C6 5.9 6.39147 4.95814 7.1748 4.1748C7.95814 3.39147 8.9 3 10 3Z" fill="black"/>
</svg>
